<svg width="25" height="24" viewBox="0 0 25 24" fill="none" xmlns="http://www.w3.org/2000/svg">
<g id="mail">
<mask id="mask0_71395_17528" style="mask-type:alpha" maskUnits="userSpaceOnUse" x="0" y="0" width="25" height="24">
<rect id="Bounding box" x="0.5" width="24" height="24" fill="#D9D9D9"/>
</mask>
<g mask="url(#mask0_71395_17528)">
<path id="mail_2" d="M4.5 20C3.95 20 3.47917 19.8042 3.0875 19.4125C2.69583 19.0208 2.5 18.55 2.5 18V6C2.5 5.45 2.69583 4.97917 3.0875 4.5875C3.47917 4.19583 3.95 4 4.5 4H20.5C21.05 4 21.5208 4.19583 21.9125 4.5875C22.3042 4.97917 22.5 5.45 22.5 6V18C22.5 18.55 22.3042 19.0208 21.9125 19.4125C21.5208 19.8042 21.05 20 20.5 20H4.5ZM20.5 8L13.025 12.675C12.9417 12.725 12.8542 12.7625 12.7625 12.7875C12.6708 12.8125 12.5833 12.825 12.5 12.825C12.4167 12.825 12.3292 12.8125 12.2375 12.7875C12.1458 12.7625 12.0583 12.725 11.975 12.675L4.5 8V18H20.5V8ZM12.5 11L20.5 6H4.5L12.5 11ZM4.5 8.25V6.775V6.8V6.7875V8.25Z" fill="#A8A8A8"/>
</g>
</g>
</svg>
